HIERARCHY
ROOT Hips
{
  OFFSET 0 0 0
  CHANNELS 6 Xposition Yposition Zposition Zrotation Yrotation Xrotation
  JOINT LeftThigh
  {
    OFFSET 8.409438 0 -5.917753
    CHANNELS 3 Zrotation Yrotation Xrotation
    JOINT LeftLeg
    {
      OFFSET 0 0 -42.358652
      CHANNELS 3 Zrotation Yrotation Xrotation
      JOINT LeftFoot
      {
        OFFSET 0 0 -39.357303
        CHANNELS 3 Zrotation Yrotation Xrotation
      }
    }
  }
  JOINT RightThigh
  {
    OFFSET -8.409438 0 -5.917753
    CHANNELS 3 Zrotation Yrotation Xrotation
    JOINT RightLeg
    {
      OFFSET 0 0 -42.358652
      CHANNELS 3 Zrotation Yrotation Xrotation
      JOINT RightFoot
      {
        OFFSET 0 0 -39.357303
        CHANNELS 3 Zrotation Yrotation Xrotation
      }
    }
  }
  JOINT SpineLow
  {
    OFFSET 0 0 4.719101
    CHANNELS 3 Zrotation Yrotation Xrotation
    JOINT SpineMid
    {
      OFFSET 0 0 12.899191
      CHANNELS 3 Zrotation Yrotation Xrotation
      JOINT Chest
      {
        OFFSET 0 0 12.899191
        CHANNELS 3 Zrotation Yrotation Xrotation
        JOINT LeftShoulder
        {
          OFFSET 7.550562 1.41573 9.438202
          CHANNELS 3 Zrotation Yrotation Xrotation
          JOINT LeftArm
          {
            OFFSET 9.155056 0 4.247191
            CHANNELS 3 Zrotation Yrotation Xrotation
            JOINT LeftForearm
            {
              OFFSET 0 0 25.771955
              CHANNELS 3 Zrotation Yrotation Xrotation
              JOINT LeftHand
              {
                OFFSET 0 0 25.197169
                CHANNELS 3 Zrotation Yrotation Xrotation
              }
            }
          }
        }
        JOINT RightShoulder
        {
          OFFSET -7.550562 1.41573 9.438202
          CHANNELS 3 Zrotation Yrotation Xrotation
          JOINT RightArm
          {
            OFFSET -9.155056 0 4.247191
            CHANNELS 3 Zrotation Yrotation Xrotation
            JOINT RightForearm
            {
              OFFSET 0 0 -25.771955
              CHANNELS 3 Zrotation Yrotation Xrotation
              JOINT RightHand
              {
                OFFSET 0 0 -25.197169
                CHANNELS 3 Zrotation Yrotation Xrotation
              }
            }
          }
        }
        JOINT Neck
        {
          OFFSET 0 0 15.101124
          CHANNELS 3 Zrotation Yrotation Xrotation
          JOINT Head
          {
            OFFSET 0 0 11.325843
            CHANNELS 3 Zrotation Yrotation Xrotation
            End Site
            {
              OFFSET 0 0 14.157303
            }
          }
        }
      }
    }
  }
}
MOTION
Frames: 17
Frame Time: 0.0
0.0  101.685394  0.0  -1.192191  -21.224047  -101.685707  18.137741  -20.173557  9.403394  -2.421359  8.755744  27.419749  9.151638  5.294024  4.956003  -13.567295  5.981942  -9.326607  0.936699  9.974173  21.347634  22.264022  5.947554  -1.368698  -6.808521  -1.619727  2.82076  -18.787809  -3.59023  8.101586  -18.787809  -3.59023  8.101586  -11.224681  14.625752  0.065116  54.652044  59.030487  83.164245  -17.056676  -23.263084  128.605383  140.206402  -12.596416  -8.135115  16.350757  11.502196  21.089748  94.297918  -2.157727  56.345546  -57.890689  -19.835374  -107.103672  62.210198  36.801086  20.758576  22.991387  7.004026  -2.962825  17.256444  5.150418  -2.488394  
0.0  101.685394  0.0  -1.013271  -20.9414  -101.512508  17.892619  -19.736164  9.351152  -1.983755  8.48513  27.395479  9.005772  5.277493  4.946536  -13.940128  6.30762  -9.462112  0.685243  9.894955  20.961283  22.427679  5.88769  -1.318737  -6.764004  -1.675781  2.774  -18.672147  -3.760587  7.989139  -18.672148  -3.760587  7.98914  -11.241019  14.890113  0.351599  56.144429  58.885393  84.988738  -17.132602  -23.02383  128.765227  140.157952  -12.983466  -7.930681  16.858521  11.12543  22.233422  95.931002  -1.084142  56.345315  -58.370209  -18.57504  -107.050302  63.728964  36.347522  22.019053  22.509206  6.951404  -3.070164  16.896576  5.108923  -2.561254  
0.0  101.685394  0.0  -0.928389  -20.432531  -101.220883  17.821219  -19.500054  9.138462  -1.982608  8.390757  27.204262  8.831048  5.24775  4.933036  -14.651476  6.445821  -9.599209  0.934634  9.79183  20.639916  22.345983  5.868661  -1.290866  -6.735925  -1.75371  2.744033  -18.605129  -3.983197  7.929173  -18.605128  -3.983197  7.929173  -11.233069  15.053908  0.458941  57.908248  58.664845  87.004335  -17.080339  -22.965236  128.742956  140.272403  -13.17686  -7.599951  17.433266  10.925693  23.317857  97.405102  0.093955  56.361003  -58.541962  -17.217708  -107.479052  65.264901  35.599211  23.489713  22.094726  6.973123  -3.258453  16.588292  5.120232  -2.698389  
0.0  101.685394  0.0  -1.225769  -20.003071  -100.995066  18.099875  -19.863568  8.964241  -2.023234  8.335014  27.129316  8.421558  5.218077  4.804453  -15.418378  6.182749  -9.461031  0.908356  9.918961  20.22874  22.506752  5.822472  -1.229867  -6.721755  -1.869503  2.738588  -18.58278  -4.299518  7.947322  -18.58278  -4.299518  7.947321  -10.783314  15.440445  0.74141  59.524773  58.390429  88.874078  -16.912078  -23.22028  128.511915  140.53528  -13.076028  -7.302118  17.681885  10.595751  23.801225  99.23945  0.476386  56.70889  -58.857857  -15.86436  -107.906826  66.735909  34.510434  24.958576  21.894175  7.012563  -3.302955  16.438572  5.149198  -2.730792  
0.0  101.685394  0.0  -1.285695  -19.026885  -100.865108  18.049363  -20.042137  8.834953  -2.493818  8.489669  26.875356  8.210089  5.186353  4.763914  -16.555875  6.132988  -9.351893  1.264077  10.02171  20.019326  22.410567  5.852733  -1.225545  -6.724033  -1.945724  2.719801  -18.599015  -4.510569  7.918728  -18.599015  -4.51057  7.918728  -10.748137  15.64941  0.910743  61.379099  58.290343  90.769577  -16.56195  -23.726601  128.065438  140.845235  -12.702207  -7.010184  18.545525  10.187325  24.81254  100.171761  1.344805  56.76417  -59.679304  -14.698385  -107.733592  68.061287  33.372805  25.946053  21.580331  7.04765  -3.380025  16.204385  5.174316  -2.786083  
0.0  101.685394  0.0  -1.668425  -18.097964  -100.73989  18.294954  -20.667651  8.697709  -3.300216  8.720636  26.49818  7.843949  5.127939  4.616866  -17.817114  5.768252  -9.177954  1.352027  10.270609  19.853869  22.582695  5.896188  -1.188929  -6.705344  -2.052485  2.720363  -18.563642  -4.80135  7.950292  -18.563643  -4.801349  7.950292  -10.544831  15.91389  1.202738  63.138143  58.356674  92.637103  -16.114278  -24.313141  127.408983  141.126018  -12.342309  -6.67744  19.425603  9.701649  25.83568  100.990671  2.105214  56.762547  -60.941172  -13.502977  -106.785646  69.084914  32.581577  26.417577  21.348337  7.074894  -3.374627  16.030536  5.196091  -2.78019  
0.0  101.685394  0.0  -1.702483  -16.784517  -100.631296  18.241785  -20.924949  8.468315  -4.048223  9.035906  26.255827  7.639581  5.080011  4.564249  -18.992789  5.759797  -9.14213  1.430484  10.467657  19.834765  22.472832  5.988751  -1.186979  -6.693918  -2.116475  2.693032  -18.540151  -4.983451  7.894122  -18.540151  -4.983452  7.894122  -10.443037  16.099759  1.378156  64.917078  58.671591  94.543872  -15.55053  -24.913488  126.622806  141.315423  -12.036018  -6.575407  20.130398  9.278937  26.768749  101.729435  2.89865  56.637654  -62.129561  -11.87655  -105.933428  70.111377  31.680788  27.212713  21.073421  7.130522  -3.409901  15.825025  5.237991  -2.805234  
0.0  101.685394  0.0  -1.868227  -15.440082  -100.640097  18.18944  -21.391497  8.319558  -4.857402  9.455294  25.994245  7.360164  4.966047  4.469797  -20.06644  5.753132  -8.978568  1.136216  10.661276  19.895786  22.507975  6.105206  -1.18869  -6.642451  -2.173658  2.682134  -18.407241  -5.14752  7.877751  -18.407241  -5.147521  7.877751  -10.190891  16.282053  1.678267  66.489633  59.149717  96.50794  -14.920328  -25.520992  125.748414  141.514681  -11.655033  -6.92614  20.599177  8.769219  27.602223  102.402824  3.581678  56.39552  -63.621761  -10.202606  -104.884485  70.889682  30.760598  27.634666  20.71658  7.116628  -3.397523  15.557588  5.22972  -2.791154  
0.0  101.685394  0.0  -1.79753  -13.806325  -100.617713  17.857819  -21.521069  8.10155  -5.497204  9.775633  25.842462  7.107619  4.905716  4.429647  -21.297599  6.082018  -9.020219  0.887664  10.771802  20.033658  22.486038  6.236394  -1.19407  -6.571083  -2.192062  2.62558  -18.211039  -5.221816  7.724641  -18.211038  -5.221815  7.724641  -10.162271  16.240558  1.988926  68.586186  59.890407  99.057263  -14.240142  -26.096488  124.80586  141.671855  -11.228733  -7.652963  20.824228  8.241275  28.342209  102.999175  4.224785  55.958173  -65.965726  -8.176864  -103.639461  70.708759  29.724078  27.134689  20.241157  7.06435  -3.35138  15.200916  5.194305  -2.749084  
0.0  101.685394  0.0  -1.627507  -12.330485  -100.780302  17.666842  -21.637578  8.094424  -5.934047  10.043131  25.78345  6.646271  4.804254  4.291024  -22.401328  6.630937  -8.952053  0.472116  10.786461  20.168729  22.547177  6.396403  -1.200663  -6.450634  -2.178898  2.581208  -17.876821  -5.212977  7.591955  -17.876821  -5.212977  7.591955  -10.003374  16.326268  2.428775  70.661649  60.809261  101.719034  -13.606732  -26.599908  123.851796  141.618436  -10.900207  -8.556887  20.950638  7.809029  29.056916  103.613854  4.889604  55.288229  -68.823258  -5.412984  -101.955633  69.48554  29.069751  26.09613  19.719547  6.971843  -3.264206  14.809153  5.130158  -2.6745  
0.0  101.685394  0.0  -1.542658  -10.470904  -101.046585  16.920462  -21.73075  8.151116  -6.236473  10.242011  25.763257  6.175578  4.741568  4.210627  -23.742802  7.346582  -8.716294  0.184087  10.720172  20.287687  22.573333  6.530418  -1.190685  -6.391943  -2.167024  2.540949  -17.711907  -5.198732  7.475167  -17.711908  -5.198732  7.475167  -9.735013  16.479654  2.870327  73.268787  61.923407  104.924537  -13.024169  -26.983968  122.931174  141.325625  -10.745823  -9.497933  21.155836  7.453087  29.734093  104.169013  5.518663  54.460377  -70.91697  -2.867909  -100.614573  69.391862  28.518949  25.901114  19.221241  6.889244  -3.158857  14.434633  5.073782  -2.587035  
0.0  101.685394  0.0  -1.435161  -8.557379  -101.151445  16.324775  -21.732459  8.074882  -6.428822  10.362502  25.829067  5.551514  4.632104  4.025154  -25.638566  8.002461  -8.908315  0.352148  10.585799  20.591167  22.636407  6.6831  -1.18417  -6.33929  -2.153219  2.475273  -17.561502  -5.185116  7.289264  -17.561503  -5.185115  7.289263  -9.277344  16.909773  3.412677  76.005354  63.311148  108.25053  -12.424607  -27.351374  121.990174  140.84465  -10.739963  -10.531505  21.469441  7.135112  30.344123  104.647994  6.19758  53.441954  -72.847137  -0.515832  -99.572348  69.894642  27.76659  25.824206  18.763453  6.782706  -3.057493  14.090514  4.998975  -2.502447  
0.0  101.685394  0.0  -1.211824  -6.52526  -101.091839  15.667088  -21.557177  7.802492  -6.863734  10.543672  25.747298  5.090272  4.581299  3.940437  -26.565617  8.837846  -8.98679  -0.198838  10.455253  20.727365  22.520764  6.826826  -1.185614  -6.29716  -2.128973  2.379808  -17.436438  -5.149618  7.020334  -17.436437  -5.149618  7.020334  -8.721371  17.278461  3.818485  79.813658  64.767458  112.653419  -11.865266  -27.819761  121.043094  140.131285  -10.818175  -11.762457  21.845699  6.809458  30.87643  105.042655  6.98454  52.314582  -75.556965  1.963659  -98.243301  69.956763  26.944356  24.692927  18.288755  6.686458  -3.024117  13.734494  4.9298  -2.469128  
0.0  101.685394  0.0  -0.969037  -4.738714  -101.195037  15.390757  -21.495971  7.763599  -7.380906  10.706124  25.646161  4.565352  4.491471  3.768406  -26.929804  9.682072  -8.848176  -0.864255  10.292713  20.907208  22.304841  7.104992  -1.202836  -6.207611  -2.075471  2.318845  -17.180377  -5.030611  6.833911  -17.180375  -5.030611  6.833911  -8.018901  17.713764  4.339567  84.270025  66.284835  117.725684  -11.336885  -28.403552  120.085523  139.166415  -10.920988  -13.253411  22.196413  6.397084  31.420939  105.400137  8.003539  51.068081  -80.102282  4.347295  -96.612674  69.347938  25.855033  21.425925  17.797878  6.519174  -2.984198  13.366231  4.807516  -2.428838  
0.0  101.685394  0.0  -0.744428  -2.511046  -101.14616  14.679434  -21.337892  7.540414  -8.183306  10.988473  25.390846  4.275077  4.429636  3.697821  -27.555851  10.486093  -8.806151  -1.539544  10.194275  21.048773  21.811918  7.30293  -1.252081  -6.171315  -2.019465  2.232755  -17.068248  -4.905153  6.582496  -17.068247  -4.905153  6.582495  -7.121869  17.932363  4.761069  90.203799  67.596572  124.382867  -10.804347  -29.007421  119.152099  137.94655  -11.062609  -15.032166  22.560993  5.977896  32.03678  105.753443  9.302973  49.701801  -82.985927  8.326017  -95.986617  68.935729  24.348787  20.676169  17.216041  6.34145  -3.029527  12.930679  4.675349  -2.451491  
0.0  101.685394  0.0  -0.515586  -0.396359  -101.15718  14.238201  -21.230186  7.466231  -9.102278  11.246804  25.070193  4.017387  4.335871  3.588597  -27.689838  11.239449  -8.560444  -2.419766  10.16667  21.182744  21.212173  7.491766  -1.33389  -6.094847  -1.942881  2.157655  -16.844891  -4.724842  6.35304  -16.844892  -4.724842  6.35304  -6.168979  18.247067  5.37835  97.061699  68.83818  131.871922  -10.250292  -29.55085  118.286978  136.45589  -11.278342  -17.074805  22.884953  5.499931  32.622064  106.066254  10.722186  48.201908  -84.58751  12.284338  -95.667426  69.414436  23.074218  21.425577  16.567592  6.097255  -3.012633  12.444401  4.495379  -2.425361  
0.0  101.685394  0.0  -0.214431  2.075283  -100.994609  13.346958  -20.929813  7.175109  -10.041669  11.535071  24.731908  3.801739  4.287846  3.527004  -28.364955  11.978619  -8.608285  -3.330865  10.216028  21.291075  20.704534  7.656485  -1.402896  -6.058019  -1.853806  2.035207  -16.726137  -4.518226  5.99465  -16.726136  -4.518226  5.99465  -5.102794  18.584479  6.052658  105.219957  69.604022  140.616472  -9.705535  -30.017333  117.479136  134.696803  -11.583179  -19.330439  23.232352  4.926582  33.114859  106.304774  12.127403  46.637204  -85.966908  15.109611  -95.300102  70.99225  21.960822  22.263403  15.823385  5.857043  -3.017015  11.886483  4.318279  -2.414875  
